<?xml version="1.0" encoding="UTF-8" standalone="no"?>
<!-- Created with Inkscape (http://www.inkscape.org/) -->

<svg
   xmlns:dc="http://purl.org/dc/elements/1.1/"
   xmlns:cc="http://creativecommons.org/ns#"
   xmlns:rdf="http://www.w3.org/1999/02/22-rdf-syntax-ns#"
   xmlns:svg="http://www.w3.org/2000/svg"
   xmlns="http://www.w3.org/2000/svg"
   xmlns:sodipodi="http://sodipodi.sourceforge.net/DTD/sodipodi-0.dtd"
   xmlns:inkscape="http://www.inkscape.org/namespaces/inkscape"
   id="svg2"
   sodipodi:docname="antifascist-action-red.svg"
   viewBox="0 0 847.19 847.85"
   version="1.1"
   inkscape:version="0.92.1 r"
   width="903.66931"
   height="904.37329">
  <defs
     id="defs72" />
  <sodipodi:namedview
     id="base"
     bordercolor="#666666"
     inkscape:pageshadow="2"
     inkscape:window-y="14"
     fit-margin-left="0"
     pagecolor="#ffffff"
     inkscape:window-height="1426"
     inkscape:window-maximized="0"
     inkscape:zoom="0.35"
     inkscape:window-x="0"
     showgrid="true"
     borderopacity="1.0"
     inkscape:current-layer="layer1"
     inkscape:cx="1059.3962"
     inkscape:cy="231.88159"
     fit-margin-top="0"
     fit-margin-right="0"
     fit-margin-bottom="0"
     inkscape:window-width="2560"
     inkscape:pageopacity="0.0"
     inkscape:document-units="px">
    <inkscape:grid
       type="xygrid"
       id="grid3896" />
  </sodipodi:namedview>
  <g
     id="layer1"
     inkscape:label="Layer 1"
     inkscape:groupmode="layer"
     transform="translate(300.74,2.9901)"
     style="display:inline">
    <g
       id="layer1-4"
       transform="translate(-248.4,-65.648)"
       style="display:inline"
       inkscape:label="layer1-4">
      <g
         id="g2844"
         transform="translate(591.43,-22.857)"
         style="display:inline"
         inkscape:export-filename="/home/morgan/purple-antifa.png"
         inkscape:export-xdpi="13.16275"
         inkscape:export-ydpi="13.16275">
        <path
           style="display:inline;fill:#441650;stroke-width:1.0666666"
           d="m 452.93359,0 c -32.7392,0 -76.3332,5.5336609 -110.25,13.994141 C 181.71293,54.143473 53.679087,182.17431 13.732422,342.93164 2.9588756,386.28951 -1.8818978,434.80054 0.66796875,473.85547 3.5170353,517.4896 9.4941306,550.76056 21.216797,588.26562 35.544263,634.10136 60.679082,683.01508 89.738281,721.59961 151.44495,803.53134 235.9611,861.08483 334.6875,888.4043 c 29.28533,8.10346 66.26027,13.58111 104,15.4082 v 0.008 c 3.52,0.17041 7.59974,0.39795 9.06641,0.50586 5.44426,0.40064 43.66587,-2.0326 57.0664,-3.63281 63.36,-7.56587 123.73282,-28.1417 178.13281,-60.70703 119.7344,-71.68 199.50098,-193.50399 217.00391,-331.44531 4.97173,-39.18507 4.95718,-72.39455 -0.0469,-112.81055 C 887.68616,296.96781 842.62357,205.08233 771.48438,133.8418 762.09771,124.44233 748.89706,112.13975 742.15039,106.50391 676.44373,51.618575 598.93304,16.941328 514.95117,4.8613281 499.53997,2.6445815 465.80826,0 452.93359,0 Z m -0.99023,79.412109 c 17.71293,-0.008 35.36016,0.64903 44.87109,1.972657 65.2256,9.077333 116.91799,29.064654 169.33399,65.478514 18.1152,12.58667 31.64788,24.06424 49.95508,42.37891 60.82559,60.81066 97.11922,136.94968 107.33789,225.15234 2.03087,17.54133 1.71722,61.65641 -0.57227,80.5332 -10.54933,86.93333 -49.2038,164.93918 -111.80859,225.58985 -58.50667,56.68266 -130.9428,91.64734 -212.39453,102.52734 l -0.006,-0.008 c -14.9792,2.00016 -66.86526,2.94976 -79.70899,1.45898 -18.1792,-2.11018 -27.75033,-3.48347 -37.65625,-5.40625 -38.8704,-7.54346 -78.73449,-22.21952 -112.21289,-41.30859 -95.20839,-54.28247 -162.56442,-147.23093 -183.337749,-252.992 -5.442347,-27.70773 -6.44336,-38.97587 -6.44336,-72.5332 0,-34.35413 1.010435,-45.21451 6.986328,-75.05664 22.026671,-109.96266 96.829801,-207.46963 198.197271,-258.33789 39.75679,-19.953068 76.4746,-31.200562 122.19726,-37.435549 9.77067,-1.332373 27.54879,-2.005645 45.26172,-2.013672 z"
           transform="matrix(0.93750003,0,0,0.93750003,-643.77,85.5149)"
           id="path2842"
           inkscape:connector-curvature="0" />
        <path
           id="path2838"
           style="display:inline;fill:#440055"
           inkscape:connector-curvature="0"
           d="m -207.89,837.3 c -5.1627,-0.4682 -9.9894,-1.1886 -10.726,-1.6009 -1.3981,-0.7824 -0.67608,-2.1126 28.603,-52.697 7.0037,-12.1 22.745,-39.325 34.98,-60.5 12.235,-21.175 26.083,-45.025 30.773,-53 4.6897,-7.975 9.8972,-16.975 11.572,-20 1.675,-3.025 7.2342,-12.62 12.354,-21.322 l 9.3084,-15.822 -1.6179,-3.1782 c -0.88987,-1.748 -3.2198,-5.4282 -5.1776,-8.1782 -20.999,-29.495 -49.249,-43.679 -94.486,-47.436 -17.446,-1.4492 -35.251,-1.3275 -67.196,0.45919 -54.969,3.0744 -64.467,3.4592 -85.605,3.4681 -53.988,0.0226 -91.809,-7.1507 -127.82,-24.242 -25.855,-12.273 -47.999,-29.036 -69,-52.234 l -6.3236,-6.9852 0.6444,-7.0148 c 0.89957,-9.7926 6.0692,-34.518 10.115,-48.38 15.053,-51.571 40.075,-95.111 76.901,-133.82 9.6865,-10.18 29.975,-28.359 38.195,-34.223 l 3.3677,-2.4024 9.7603,9.9933 c 31.285,32.032 69.391,46.287 123.76,46.298 26.683,0.005 50.245,-2.5668 114.5,-12.499 51.119,-7.9016 75.315,-10.083 101.5,-9.1517 35.249,1.2541 59.006,7.9246 82.528,23.173 10.45,6.774 27.996,24.711 36.185,36.991 7.3856,11.076 15.72,27.867 21.213,42.736 l 3.5966,9.7364 -5.8674,10.264 c -3.227,5.645 -12.073,21.064 -19.657,34.264 -7.5845,13.2 -14.555,25.35 -15.491,27 -3.6231,6.3902 -24.958,43.116 -38.341,66 -7.7197,13.2 -15.452,26.475 -17.182,29.5 -6.1405,10.733 -42.194,72.514 -66.236,113.5 -8.9544,15.265 -41.094,70.555 -44.468,76.5 -1.405,2.475 -8.5307,14.85 -15.835,27.5 -7.3041,12.65 -15.186,26.375 -17.516,30.5 -10.378,18.375 -13.403,23.576 -14.351,24.674 -0.55748,0.64576 -3.6152,1.4499 -6.7951,1.787 -3.1798,0.33711 -6.9065,0.74228 -8.2815,0.90038 -1.375,0.15809 -6.724,-0.0956 -11.887,-0.56384 z" />
        <path
           id="path2834"
           style="display:inline;fill:#440055"
           inkscape:connector-curvature="0"
           d="m -318.25,822.21 c -9.2125,-1.1324 -16.75,-2.4701 -16.75,-2.9726 0,-0.50247 16.237,-32.636 36.082,-71.409 19.845,-38.772 35.846,-70.732 35.556,-71.021 -0.90422,-0.90422 -12.694,-3.1167 -25.166,-4.7226 -15.132,-1.9485 -31.447,-3.1691 -67.973,-5.0852 -45.969,-2.4115 -66.404,-4.8472 -88.337,-10.529 -65.525,-16.975 -97.683,-60.834 -106.66,-145.47 -2.3545,-22.204 -3.4922,-21.599 11.744,-6.2436 39.823,40.134 85.237,59.474 152.25,64.835 17.913,1.4332 64.877,0.64751 95.5,-1.5978 30.813,-2.2591 65.509,-2.9705 79.165,-1.6231 14.394,1.4202 28.444,4.901 36.913,9.1448 9.8945,4.9583 9.7003,3.7696 2.7542,16.858 -10.389,19.575 -33.785,62.219 -62.34,113.63 -26.68,48.033 -51.838,93.87 -60.51,110.25 -2.4022,4.5375 -4.6185,8.1974 -4.9251,8.133 -0.30657,-0.0643 -8.0949,-1.0435 -17.307,-2.176 z" />
      </g>
    </g>
  </g>
  <metadata
     id="metadata69">
    <rdf:RDF>
      <cc:Work>
        <dc:format>image/svg+xml</dc:format>
        <dc:type
           rdf:resource="http://purl.org/dc/dcmitype/StillImage" />
        <cc:license
           rdf:resource="http://creativecommons.org/publicdomain/zero/1.0/" />
        <dc:publisher>
          <cc:Agent
             rdf:about="http://openclipart.org/">
            <dc:title>Openclipart</dc:title>
          </cc:Agent>
        </dc:publisher>
        <dc:title></dc:title>
      </cc:Work>
      <cc:License
         rdf:about="http://creativecommons.org/publicdomain/zero/1.0/">
        <cc:permits
           rdf:resource="http://creativecommons.org/ns#Reproduction" />
        <cc:permits
           rdf:resource="http://creativecommons.org/ns#Distribution" />
        <cc:permits
           rdf:resource="http://creativecommons.org/ns#DerivativeWorks" />
      </cc:License>
    </rdf:RDF>
  </metadata>
</svg>
